<?xml version="1.0" encoding="utf-8"?>
<!-- Generator: Adobe Illustrator 25.3.1, SVG Export Plug-In . SVG Version: 6.00 Build 0)  -->
<svg version="1.1" id="Capa_1" xmlns="http://www.w3.org/2000/svg" xmlns:xlink="http://www.w3.org/1999/xlink" x="0px" y="0px"
	 viewBox="0 0 724.9 124.8" style="enable-background:new 0 0 724.9 124.8;" xml:space="preserve">
<style type="text/css">.st0{fill:#EC1C24;}
	.st1{fill:#FFFFFF;}
</style>
<g>
	<rect class="st0" width="724.9" height="124.8"/>
	<g>
		<g>
			<path class="st1" d="M85,47.6c-4.2-4.3-10-7-16.2-7c-11.8,0-21.3,10.2-21.3,21.9S57.1,84.3,69,84.3c6,0,11.8-2.8,16-7v7.3
				c-4.6,3.3-10.2,5.2-15.8,5.2c-15,0-27.6-12.1-27.6-27.2c0-15.2,12.4-27.6,27.6-27.6c5.9,0,11.1,1.7,15.8,5.2V47.6z"/>
			<path class="st1" d="M135.2,47.2l-9.1,21.2H144L135.2,47.2z M123.7,73.9l-6.4,15h-6.5l24.4-55.4l23.8,55.4h-6.5l-6.2-15
				C146.3,73.9,123.7,73.9,123.7,73.9z"/>
			<polygon class="st1" points="193.4,83.4 208,83.4 208,88.9 187.5,88.9 187.5,36 193.4,36 			"/>
			<polygon class="st1" points="238.2,36 265.7,36 265.7,41.4 244.1,41.4 244.1,57.2 265,57.2 265,62.6 244.1,62.6 244.1,83.4 
				265.7,83.4 265.7,88.9 238.2,88.9 			"/>
			<path class="st1" d="M307.5,83.4c6.5,0,11.9-0.9,16.7-5.5c4.4-4.1,6.6-9.6,6.6-15.5c0-6-2.3-11.9-6.9-15.9
				c-4.9-4.3-10.2-5.1-16.4-5.1h-4.3v42H307.5z M297.3,36h10c7.9,0,14.4,1.1,20.6,6.4c6,5.2,8.8,12.3,8.8,20.1
				c0,7.7-2.8,14.5-8.6,19.7c-6.3,5.6-12.6,6.7-20.9,6.7h-9.8V36z"/>
			<path class="st1" d="M367.6,62.4c0,11.9,9.7,21.9,21.7,21.9c12,0,21.7-10,21.7-21.9c0-12-9.5-21.9-21.7-21.9
				C377.2,40.5,367.6,50.4,367.6,62.4 M416.9,62.5c0,15.3-12.5,27.3-27.6,27.3c-15.1,0-27.6-12.1-27.6-27.3
				c0-15.1,12.5-27.4,27.6-27.4C404.4,35.1,416.9,47.3,416.9,62.5"/>
			<polygon class="st1" points="445.8,33.7 487,77 487,36 493,36 493,91.3 451.7,48.1 451.7,88.9 445.8,88.9 			"/>
			<rect x="525.7" y="36" class="st1" width="5.9" height="52.9"/>
			<path class="st1" d="M583.3,47.2l-9,21.2h17.9L583.3,47.2z M571.9,73.9l-6.4,15H559l24.4-55.4l23.8,55.4h-6.5l-6.2-15
				C594.5,73.9,571.9,73.9,571.9,73.9z"/>
			<polygon class="st1" points="634.9,33.7 676.2,77 676.2,36 682.1,36 682.1,91.3 640.8,48.1 640.8,88.9 634.9,88.9 			"/>
		</g>
	</g>
</g>
</svg>
