<?xml version="1.0" encoding="utf-8"?>
<!-- Generator: Adobe Illustrator 25.4.1, SVG Export Plug-In . SVG Version: 6.00 Build 0)  -->
<svg version="1.1" id="Capa_1" xmlns="http://www.w3.org/2000/svg" xmlns:xlink="http://www.w3.org/1999/xlink" x="0px" y="0px"
	 viewBox="0 0 640.5 124.8" style="enable-background:new 0 0 640.5 124.8;" xml:space="preserve">
<style type="text/css">.st0{fill:#FFFFFF;}
</style>
<g>
	<g>
		<g>
			<path class="st0" d="M43.4,47.6c-4.2-4.3-10-7-16.2-7c-11.8,0-21.3,10.2-21.3,21.9s9.6,21.8,21.5,21.8c6,0,11.8-2.8,16-7v7.3
				c-4.6,3.3-10.2,5.2-15.8,5.2C12.6,89.8,0,77.7,0,62.6C0,47.4,12.4,35,27.6,35c5.9,0,11.1,1.7,15.8,5.2V47.6z"/>
			<path class="st0" d="M93.6,47.2l-9.1,21.2h17.9L93.6,47.2z M82.1,73.9l-6.4,15h-6.5l24.4-55.4l23.8,55.4h-6.5l-6.2-15H82.1z"/>
			<polygon class="st0" points="151.8,83.4 166.4,83.4 166.4,88.9 145.9,88.9 145.9,36 151.8,36 			"/>
			<polygon class="st0" points="196.6,36 224.1,36 224.1,41.4 202.5,41.4 202.5,57.2 223.4,57.2 223.4,62.6 202.5,62.6 202.5,83.4 
				224.1,83.4 224.1,88.9 196.6,88.9 			"/>
			<path class="st0" d="M265.9,83.4c6.5,0,11.9-0.9,16.7-5.5c4.4-4.1,6.6-9.6,6.6-15.5c0-6-2.3-11.9-6.9-15.9
				c-4.9-4.3-10.2-5.1-16.4-5.1h-4.3v42H265.9z M255.7,36h10c7.9,0,14.4,1.1,20.6,6.4c6,5.2,8.8,12.3,8.8,20.1
				c0,7.7-2.8,14.5-8.6,19.7c-6.3,5.6-12.6,6.7-20.9,6.7h-9.8V36H255.7z"/>
			<path class="st0" d="M326,62.4c0,11.9,9.7,21.9,21.7,21.9s21.7-10,21.7-21.9c0-12-9.5-21.9-21.7-21.9
				C335.6,40.5,326,50.4,326,62.4 M375.3,62.5c0,15.3-12.5,27.3-27.6,27.3s-27.6-12.1-27.6-27.3c0-15.1,12.5-27.4,27.6-27.4
				C362.8,35.1,375.3,47.3,375.3,62.5"/>
			<polygon class="st0" points="404.2,33.7 445.4,77 445.4,36 451.4,36 451.4,91.3 410.1,48.1 410.1,88.9 404.2,88.9 			"/>
			<rect x="484.1" y="36" class="st0" width="5.9" height="52.9"/>
			<path class="st0" d="M541.7,47.2l-9,21.2h17.9L541.7,47.2z M530.3,73.9l-6.4,15h-6.5l24.4-55.4l23.8,55.4h-6.5l-6.2-15H530.3z"/>
			<polygon class="st0" points="593.3,33.7 634.6,77 634.6,36 640.5,36 640.5,91.3 599.2,48.1 599.2,88.9 593.3,88.9 			"/>
		</g>
	</g>
</g>
</svg>
